<?xml version="1.0" standalone="no"?>
<!DOCTYPE svg PUBLIC "-//W3C//DTD SVG 20010904//EN"
 "http://www.w3.org/TR/2001/REC-SVG-20010904/DTD/svg10.dtd">
<svg version="1.0" xmlns="http://www.w3.org/2000/svg"
 width="640.000000pt" height="640.000000pt" viewBox="0 0 640.000000 640.000000"
 preserveAspectRatio="xMidYMid meet">
<metadata>
Created by potrace 1.11, written by Peter Selinger 2001-2013
</metadata>
<g transform="translate(0.000000,640.000000) scale(0.100000,-0.100000)"
fill="#000000" stroke="none">
<path d="M2945 6079 c-98 -14 -273 -130 -366 -242 -152 -181 -247 -437 -248
-668 -1 -118 17 -202 64 -292 8 -16 15 -36 15 -45 0 -9 -35 -60 -78 -113 -42
-53 -84 -107 -92 -119 -8 -12 -31 -44 -50 -71 -48 -66 -150 -225 -150 -232 0
-4 -17 -35 -38 -69 -33 -54 -71 -124 -103 -190 -5 -10 -13 -26 -18 -36 -5 -10
-20 -41 -34 -68 -14 -27 -44 -89 -67 -139 -22 -49 -44 -97 -49 -105 -14 -26
-78 -193 -96 -250 -56 -180 -74 -331 -56 -491 12 -114 36 -236 50 -254 5 -5
11 -25 15 -44 15 -81 115 -249 199 -335 51 -52 179 -156 191 -156 4 0 20 -10
36 -22 55 -40 29 -79 -60 -92 -113 -17 -236 -111 -299 -229 -43 -80 -54 -126
-58 -249 -6 -160 24 -238 128 -337 50 -46 51 -49 59 -121 13 -112 12 -209 -5
-321 -9 -56 -18 -105 -20 -110 -3 -4 -9 -30 -15 -57 -5 -28 -21 -74 -35 -103
-33 -69 -32 -79 8 -79 41 0 52 8 61 43 4 16 11 25 17 21 6 -3 8 -17 5 -30 -9
-33 6 -35 244 -32 150 2 204 6 203 15 -10 50 -13 315 -5 348 6 22 15 58 21 79
5 21 19 48 30 59 l20 20 29 -30 c38 -41 51 -109 61 -305 5 -102 12 -163 21
-173 11 -13 121 -15 970 -15 l958 0 6 31 c3 17 6 69 6 115 0 89 12 109 30 47
5 -21 27 -72 48 -113 l38 -75 232 -3 c218 -2 232 -1 232 16 0 9 -7 28 -16 41
-78 110 -207 461 -233 631 -6 36 -13 75 -16 86 -5 17 5 35 44 78 111 122 156
274 133 451 -15 110 -61 209 -142 302 -94 108 -203 175 -334 203 -27 6 -53 13
-58 16 -5 3 9 27 30 52 45 55 96 138 107 173 4 13 11 29 15 34 17 23 70 195
82 265 16 94 16 417 0 525 -20 132 -39 204 -119 450 -15 47 -50 126 -122 275
-97 203 -237 414 -421 635 -72 86 -273 283 -325 318 -18 12 -59 40 -91 62 -33
22 -78 49 -101 59 -49 22 -60 44 -40 83 22 42 47 205 47 302 0 100 -25 255
-46 285 -8 11 -14 27 -14 34 0 24 -87 145 -125 175 -88 70 -205 102 -310 86z
m-120 -210 c11 -17 -25 -48 -62 -55 -50 -9 -60 8 -23 40 32 27 74 34 85 15z
m-175 -126 c0 -47 -62 -131 -136 -183 -11 -8 -23 -22 -27 -30 -4 -10 -6 -8 -6
7 -1 34 45 114 100 171 52 55 69 63 69 35z m-30 -237 c0 -27 -35 -42 -57 -25
-19 17 2 49 32 49 20 0 25 -5 25 -24z m-113 -153 c14 -21 15 -34 3 -108 -7
-46 -16 -89 -21 -96 -12 -20 -36 -3 -43 31 -8 42 -8 224 1 275 l6 39 19 -58
c11 -32 26 -69 35 -83z m775 -957 c125 -20 200 -84 238 -199 17 -54 -2 -118
-46 -156 -40 -36 -126 -70 -219 -86 -38 -7 -119 -23 -180 -34 -60 -12 -144
-26 -185 -31 -41 -5 -88 -14 -105 -19 -50 -18 -282 -29 -370 -19 -100 12 -138
39 -183 132 -56 115 -40 182 60 249 61 41 158 82 219 92 24 4 53 12 63 17 32
17 254 48 351 49 50 1 117 5 150 9 90 11 122 10 207 -4z m-1157 -115 c3 -5 1
-12 -5 -16 -5 -3 -10 1 -10 9 0 18 6 21 15 7z m-38 -73 c-3 -8 -6 -5 -6 6 -1
11 2 17 5 13 3 -3 4 -12 1 -19z m-26 -51 c-8 -8 -11 -7 -11 4 0 20 13 34 18
19 3 -7 -1 -17 -7 -23z m-21 -46 c0 -11 -7 -26 -15 -35 -8 -8 -15 -20 -15 -26
0 -7 -6 -24 -14 -38 -8 -15 -23 -47 -34 -72 -11 -25 -26 -61 -35 -80 -8 -19
-23 -60 -32 -90 -9 -30 -23 -69 -31 -87 -8 -17 -14 -36 -14 -42 0 -6 -11 -44
-24 -85 -14 -41 -30 -110 -37 -153 -6 -43 -15 -100 -19 -128 -12 -71 -11 -312
0 -360 6 -22 15 -61 20 -87 11 -56 62 -169 99 -218 28 -39 123 -141 189 -203
44 -43 52 -61 27 -71 -9 -3 -15 -18 -15 -36 0 -56 -43 -36 -168 75 -19 17 -54
57 -78 90 -24 33 -48 65 -53 71 -18 22 -81 151 -81 165 0 8 -4 19 -9 24 -5 6
-19 59 -30 119 -22 111 -26 245 -12 326 5 25 14 79 21 120 7 41 16 80 20 85 4
6 11 25 15 43 21 97 221 560 281 647 13 20 24 42 24 50 0 8 5 15 10 15 6 0 10
-9 10 -19z m1094 -988 c17 -241 17 -258 3 -298 -13 -37 -18 -41 -58 -46 -24
-4 -53 -8 -64 -10 -19 -4 -20 3 -25 191 -3 107 -1 200 3 205 8 10 84 31 118
34 14 1 18 -13 23 -76z m-209 -152 c0 -226 -3 -236 -55 -181 -45 48 -70 142
-70 259 0 53 4 101 8 108 4 6 25 13 47 16 76 8 70 24 70 -202z m-658 -766 c12
-15 20 -32 17 -37 -7 -10 -54 1 -74 17 -8 7 -26 16 -39 20 -17 5 -20 10 -12
18 6 6 11 23 11 37 0 15 3 30 7 34 7 7 43 -28 90 -89z m117 -960 c30 -28 35
-75 10 -99 -20 -20 -29 -20 -64 1 -55 32 -65 87 -20 110 35 18 43 16 74 -12z
m-477 -497 c-2 -18 -4 -6 -4 27 0 33 2 48 4 33 2 -15 2 -42 0 -60z m-17 -133
c0 -14 -4 -25 -10 -25 -5 0 -10 11 -10 25 0 14 5 25 10 25 6 0 10 -11 10 -25z"/>
</g>
</svg>
